<svg xmlns="http://www.w3.org/2000/svg" width="256" height="256"><path fill-opacity=".016" d="M0 128.004v128.004l128.25-.254 128.25-.254.254-127.75L257.008 0H0v128.004m.485.496c0 70.4.119 99.053.265 63.672.146-35.38.146-92.98 0-128C.604 29.153.485 58.1.485 128.5" fill="#1976D2" fill-rule="evenodd"/><path fill-opacity=".235" d="M71.246 25.268 15.992 50.5l.254 75.93.254 75.93 49 23.855c26.95 13.121 51.967 25.224 55.593 26.896l6.593 3.04 55.407-26.935 55.407-26.935.256-75.513c.203-59.68-.007-75.713-1-76.466C236.112 49.055 128.346-.005 127.301.018c-.44.009-25.665 11.372-56.055 25.25M176 51.068c-12.845 3.565-12.844 3.565-12.232.364l.491-2.567-3.88 1.648c-11.815 5.021-10.274 4.831-30.707 3.787l-19.172-.979-5.583 2.89c-3.071 1.59-9.784 5.68-14.919 9.09L80.663 71.5l-9.831 29.487c-5.408 16.218-9.838 30.168-9.846 31-.007.832 3 10.081 6.684 20.552l6.696 19.04 31.567 18.301 31.567 18.301 7-.605c3.85-.333 9.577-1.105 12.726-1.716l5.727-1.111.273-16.624.274-16.625 10.807-.5 10.807-.5 2.15-3.768 2.15-3.768-3.322-10.232c-1.828-5.628-3.383-10.603-3.457-11.056-.074-.454 2.34-1.752 5.365-2.885 3.025-1.133 5.676-2.213 5.891-2.4.216-.187-1.575-6.177-3.978-13.31-4.12-12.227-4.586-13.091-8.142-15.089-4.287-2.41-4.393-2.747-2.11-6.724 1.582-2.757 1.529-3.424-1.119-14.1-2.345-9.45-3.422-12.012-6.876-16.35-3.779-4.746-3.955-5.228-2.277-6.231 8.019-4.793 10.681-6.893 14.466-11.414 2.382-2.845 3.952-5.138 3.488-5.096-.464.042-5.568 1.388-11.343 2.991" fill="#1976D2" fill-rule="evenodd"/><path fill-opacity=".63" d="M72.156 25.378 16.99 50.5l.255 75.933.255 75.934 54.876 26.682 54.876 26.681 17.124-8.274c9.418-4.551 34.224-16.58 55.124-26.732l38-18.457.223-75.884.223-75.883-50.559-23C159.58 14.85 134.69 3.545 132.075 2.378L127.321.255 72.156 25.378m114.761 22.038c-.229.229-5.528 1.785-11.776 3.459l-11.358 3.043.47-2.459c.258-1.352.094-2.459-.366-2.459-.459 0-4.175 1.327-8.257 2.948l-7.422 2.949-18.916-1.061-18.916-1.06-4.938 2.546c-2.716 1.401-9.411 5.457-14.877 9.014l-9.939 6.467-10.331 30.721-10.331 30.721 6.68 19.127c3.674 10.521 7.17 19.646 7.77 20.279.599.633 15.193 9.303 32.43 19.267l31.34 18.116 8.66-1.071c4.763-.589 10.572-1.55 12.91-2.136l4.25-1.064V172h20.515l2.816-4.663 2.817-4.664-3.707-10.404c-2.095-5.881-3.323-10.755-2.824-11.213.486-.446 3.246-1.577 6.133-2.513 2.887-.937 5.25-1.843 5.25-2.012 0-.771-8.248-24.125-9.048-25.621-.495-.925-2.482-2.615-4.416-3.756l-3.515-2.074 1.943-3.294 1.944-3.294-2.834-11.198c-2.172-8.584-3.677-12.348-6.453-16.13-1.992-2.712-3.621-5.166-3.621-5.453 0-.286 2.411-1.881 5.358-3.544C179.144 59.466 188 50.184 188 47.869c0-.939-.42-1.115-1.083-.453" fill="#1976D2" fill-rule="evenodd"/><path fill-opacity=".183" d="m71.5 25.96-54 24.773-.256 75.466-.256 75.465 54.756 26.683c30.116 14.676 55.064 26.677 55.441 26.668.377-.008.728-11.081.78-24.606.053-13.525.194-25.028.315-25.562.17-.75-50.009-30.805-53.576-32.091C73.734 172.407 60 134.377 60 132.04c0-.914 4.5-14.838 10-30.941 5.5-16.102 10-29.451 10-29.662 0-.625 16.991-11.858 23.403-15.473 5.652-3.186 6.298-3.317 15.215-3.079l9.312.248V27.067c0-19.837-.291-26.045-1.215-25.973-.668.051-25.515 11.241-55.215 24.866M162 48c-.825.533-1.05.969-.5.969s1.675-.436 2.5-.969c.825-.533 1.05-.969.5-.969s-1.675.436-2.5.969m17.813.683c.721.289 1.584.253 1.916-.079.332-.332-.258-.568-1.312-.525-1.165.048-1.402.285-.604.604m6.592 2.567L184.5 53.5l2.25-1.905c1.238-1.048 2.25-2.06 2.25-2.25 0-.8-.805-.209-2.595 1.905m-13.592-.567c.721.289 1.584.253 1.916-.079.332-.332-.258-.568-1.312-.525-1.165.048-1.402.285-.604.604m-36.045 3.042c1.797.222 4.497.218 6-.01 1.503-.229.032-.411-3.268-.405-3.3.005-4.529.192-2.732.415m45.637 2.525L180.5 58.5l2.25-1.905c1.238-1.048 2.25-2.06 2.25-2.25 0-.8-.805-.209-2.595 1.905m-5.964 5.305c-1.864 1.494-1.852 1.512.309.465 1.238-.6 2.25-1.3 2.25-1.555 0-.765-.519-.544-2.559 1.09M170 65c-.901.582-1.025.975-.309.985.655.008 1.469-.435 1.809-.985.767-1.242.421-1.242-1.5 0m0 2.378c0 .207.787.995 1.75 1.75 1.586 1.243 1.621 1.208.378-.378-1.307-1.666-2.128-2.195-2.128-1.372m3 4c0 .207.787.995 1.75 1.75 1.586 1.243 1.621 1.208.378-.378-1.307-1.666-2.128-2.195-2.128-1.372m4.079 6.205c.048 1.165.285 1.402.604.605.289-.722.253-1.585-.079-1.917-.332-.332-.568.258-.525 1.312m1 4c.048 1.165.285 1.402.604.605.289-.722.253-1.585-.079-1.917-.332-.332-.568.258-.525 1.312m1 4c.048 1.165.285 1.402.604.605.289-.722.253-1.585-.079-1.917-.332-.332-.568.258-.525 1.312m1 4c.048 1.165.285 1.402.604.605.289-.722.253-1.585-.079-1.917-.332-.332-.568.258-.525 1.312m1.746 8.743c-.373 1.825-.233 2.482.393 1.856.533-.533.793-1.805.576-2.826-.291-1.375-.543-1.123-.969.97M179 105.393c0 .216.698.661 1.552.989.89.341 1.291.173.941-.393-.587-.951-2.493-1.406-2.493-.596m13.031 21.107c0 .55.436 1.675.969 2.5.533.825.969 1.05.969.5s-.436-1.675-.969-2.5c-.533-.825-.969-1.05-.969-.5m-1.952 36.083c.048 1.165.285 1.402.604.605.289-.722.253-1.585-.079-1.917-.332-.332-.568.258-.525 1.312m-26.283 26.323c-.163 9.299.042 16.697.454 16.441.412-.256.75-7.623.75-16.371V173.07l10.25-.324 10.25-.324-10.704-.211-10.705-.211-.295 16.906M132 206.43c0 .275.9.981 2 1.57 1.1.589 2 .845 2 .57s-.9-.981-2-1.57c-1.1-.589-2-.845-2-.57m27.813.253c.721.289 1.584.253 1.916-.079.332-.332-.258-.568-1.312-.525-1.165.048-1.402.285-.604.604m-5.063.979c.688.278 1.813.278 2.5 0 .688-.277.125-.504-1.25-.504s-1.937.227-1.25.504m-6.481 1.031c.973.254 2.323.237 3-.037.677-.274-.119-.481-1.769-.461-1.65.02-2.204.244-1.231.498m-10.019.996c.963.252 2.537.252 3.5 0 .963-.251.175-.457-1.75-.457s-2.713.206-1.75.457" fill="#1976D2" fill-rule="evenodd"/></svg>