<svg xmlns="http://www.w3.org/2000/svg" width="256" height="256"><path fill-opacity=".016" d="M0 128.004v128.004l128.25-.254 128.25-.254.254-127.75L257.008 0H0v128.004m.485.496c0 70.4.119 99.053.265 63.672.146-35.38.146-92.98 0-128C.604 29.153.485 58.1.485 128.5" fill="#1976D2" fill-rule="evenodd"/><path fill-opacity=".498" d="M70.744 25.259L15.988 50.386l.256 76.011.256 76.011 55.341 26.911 55.342 26.912 55.158-26.911 55.159-26.91.256-76.041.256-76.042-54.256-24.806C153.915 11.878 128.6.584 127.5.424c-1.1-.16-26.64 11.016-56.756 24.835M175.5 51.047c-12.552 3.626-12.708 3.629-11.869.289.514-2.05.345-2.537-.731-2.112-.77.304-4.464 1.787-8.21 3.295l-6.809 2.742-19.157-1.045c-22.079-1.203-19.031-1.995-36.785 9.563l-11.561 7.527-10.135 30.441-10.135 30.441 6.928 19.554c3.81 10.755 7.048 19.673 7.196 19.818.147.145 14.409 8.46 31.692 18.479l31.424 18.216 7.076-.642c3.892-.354 9.664-1.144 12.826-1.758l5.75-1.115V171h21.542l2.327-4.26 2.327-4.26-3.598-10.336c-1.978-5.685-3.396-10.662-3.15-11.06.246-.398 2.946-1.573 6-2.611 3.053-1.038 5.527-2.356 5.497-2.93-.031-.574-1.987-6.443-4.348-13.043-3.964-11.081-4.612-12.216-8.459-14.826l-4.166-2.825 2.116-2.973 2.117-2.973-2.735-11.201c-2.204-9.025-3.487-12.214-6.603-16.409-2.127-2.864-3.867-5.418-3.867-5.677 0-.258 2.448-1.87 5.439-3.581 6.18-3.536 16.061-14.3 12.811-13.955-.412.043-5.25 1.379-10.75 2.967" fill="#1976D2" fill-rule="evenodd"/><path fill-opacity=".444" d="M71.744 25.318L16.988 50.427l.256 75.979.256 75.978 54.877 26.701 54.876 26.701 16.624-8.216c9.142-4.519 34.063-16.696 55.379-27.06l38.756-18.843-.256-75.507-.256-75.508-55.467-25.326C151.526 11.397 126.551.047 126.533.104c-.018.058-24.673 11.404-54.789 25.214m103.952 25.169c-11.625 3.193-11.801 3.21-11.639 1.128.09-1.163.115-2.411.054-2.772-.061-.362-3.605.816-7.876 2.617l-7.765 3.275-19.709-.997-19.709-.997-7.276 4.296c-4.002 2.363-10.464 6.435-14.361 9.049l-7.084 4.752-10.166 29.871C64.574 117.138 60 131.195 60 131.947c0 .752 3.007 9.874 6.681 20.271 5.268 14.906 7.225 19.281 9.25 20.689 1.413.981 15.933 9.52 32.266 18.973l29.698 17.189 8.802-1.088c4.842-.599 10.715-1.568 13.053-2.154l4.25-1.064V172h20.044l2.892-4.56 2.891-4.559-3.428-10.181c-1.886-5.599-3.249-10.649-3.029-11.221.219-.573 2.953-1.846 6.075-2.83 3.474-1.095 5.49-2.247 5.198-2.969-.262-.649-2.346-6.675-4.63-13.392-3.814-11.214-4.454-12.392-7.833-14.423-2.024-1.217-3.848-2.34-4.054-2.496-.206-.156.523-1.803 1.619-3.661l1.992-3.377-2.957-11.342c-2.227-8.54-3.801-12.446-6.369-15.809-1.876-2.457-3.411-4.82-3.411-5.25 0-.431 2.363-2.143 5.25-3.805 4.506-2.593 14.743-13.551 13.606-14.563-.196-.174-5.668 1.142-12.16 2.925" fill="#1976D2" fill-rule="evenodd"/><path fill-opacity=".172" d="M71.5 25.829l-54 24.715v151.478l54.391 26.489C101.806 243.08 126.443 255 126.641 255c.197 0 .359-11.502.359-25.559 0-16.785.343-25.347 1-24.941.55.34 1 .405 1 .146 0-.26-12.524-7.707-27.832-16.549l-27.832-16.076-7.056-19.924-7.055-19.925 10.44-30.836L80.106 70.5l5.197-3.431c2.858-1.886 9.247-5.911 14.197-8.944l9-5.514 9.5.249 9.5.249-.282-26.055c-.156-14.329-.606-26.028-1-25.997-.395.032-25.018 11.179-54.718 24.772m108.313 22.854c.721.289 1.584.253 1.916-.079.332-.332-.258-.568-1.312-.525-1.165.048-1.402.285-.604.604m-4 1c.721.289 1.584.253 1.916-.079.332-.332-.258-.568-1.312-.525-1.165.048-1.402.285-.604.604m9.059 3.067c-1.243 1.586-1.208 1.621.378.378 1.666-1.307 2.195-2.128 1.372-2.128-.207 0-.995.788-1.75 1.75m-20.059-.067c.721.289 1.584.253 1.916-.079.332-.332-.258-.568-1.312-.525-1.165.048-1.402.285-.604.604m-27.563 1.033c1.512.229 3.988.229 5.5 0s.275-.416-2.75-.416-4.262.187-2.75.416m43.622 4.034c-1.243 1.586-1.208 1.621.378.378 1.666-1.307 2.195-2.128 1.372-2.128-.207 0-.995.788-1.75 1.75m-6.431 4.805c-1.864 1.494-1.852 1.512.309.465 1.238-.6 2.25-1.3 2.25-1.555 0-.765-.519-.544-2.559 1.09M169 65.711c0 .574.787 1.662 1.75 2.417 1.619 1.269 1.64 1.222.283-.628-.807-1.1-1.594-2.187-1.75-2.417-.156-.229-.283.054-.283.628m3 4.667c0 .207.787.995 1.75 1.75 1.586 1.243 1.621 1.208.378-.378-1.307-1.666-2.128-2.195-2.128-1.372m5.079 8.205c.048 1.165.285 1.402.604.605.289-.722.253-1.585-.079-1.917-.332-.332-.568.258-.525 1.312m1 4c.048 1.165.285 1.402.604.605.289-.722.253-1.585-.079-1.917-.332-.332-.568.258-.525 1.312m1 4c.048 1.165.285 1.402.604.605.289-.722.253-1.585-.079-1.917-.332-.332-.568.258-.525 1.312m1 4c.048 1.165.285 1.402.604.605.289-.722.253-1.585-.079-1.917-.332-.332-.568.258-.525 1.312m1 4c.048 1.165.285 1.402.604.605.289-.722.253-1.585-.079-1.917-.332-.332-.568.258-.525 1.312m-2.536 9.348c-.317.512-.193 1.167.274 1.456.467.289.85-.13.85-.931 0-1.686-.316-1.833-1.124-.525m11.488 17.569c0 .55.436 1.675.969 2.5.533.825.969 1.05.969.5s-.436-1.675-.969-2.5c-.533-.825-.969-1.05-.969-.5m-.642 40.196c.067 1.935.473 2.835 1.028 2.282.557-.553.513-1.811-.111-3.195-.957-2.125-1.02-2.062-.917.913M187 168c-.589 1.1-.845 2-.57 2s.981-.9 1.57-2c.589-1.1.845-2 .57-2s-.981.9-1.57 2m-23.204 20.906c-.163 9.299.042 16.697.454 16.441.412-.256.75-7.622.75-16.37v-15.905l9.75-.326 9.75-.327-10.204-.21-10.205-.209-.295 16.906m-3.983 17.777c.721.289 1.584.253 1.916-.079.332-.332-.258-.568-1.312-.525-1.165.048-1.402.285-.604.604m-6.063.979c.688.278 1.813.278 2.5 0 .688-.277.125-.504-1.25-.504s-1.937.227-1.25.504m-6 1c.688.278 1.813.278 2.5 0 .688-.277.125-.504-1.25-.504s-1.937.227-1.25.504m-9.5 1.027c.963.252 2.537.252 3.5 0 .963-.251.175-.457-1.75-.457s-2.713.206-1.75.457" fill="#1976D2" fill-rule="evenodd"/></svg>