<?xml version="1.0" encoding="UTF-8" standalone="no"?>
<!-- Created with Inkscape (http://www.inkscape.org/) -->

<svg
   xmlns:dc="http://purl.org/dc/elements/1.1/"
   xmlns:cc="http://creativecommons.org/ns#"
   xmlns:rdf="http://www.w3.org/1999/02/22-rdf-syntax-ns#"
   xmlns:svg="http://www.w3.org/2000/svg"
   xmlns="http://www.w3.org/2000/svg"
   xmlns:sodipodi="http://sodipodi.sourceforge.net/DTD/sodipodi-0.dtd"
   xmlns:inkscape="http://www.inkscape.org/namespaces/inkscape"
   width="80"
   height="80"
   id="svg4396"
   version="1.1"
   inkscape:version="0.92.2 (unknown)"
   sodipodi:docname="logo.svg"
   inkscape:export-filename="/home/emanuele/Projects/dante/art/icon.png"
   inkscape:export-xdpi="153.60001"
   inkscape:export-ydpi="153.60001">
  <title
     id="title833">dante</title>
  <defs
     id="defs4398" />
  <sodipodi:namedview
     id="base"
     pagecolor="#ffffff"
     bordercolor="#666666"
     borderopacity="1.0"
     inkscape:pageopacity="0.0"
     inkscape:pageshadow="2"
     inkscape:zoom="6.3782534"
     inkscape:cx="72.06635"
     inkscape:cy="14.314751"
     inkscape:document-units="px"
     inkscape:current-layer="g877"
     showgrid="false"
     fit-margin-top="0"
     fit-margin-left="0"
     fit-margin-right="0"
     fit-margin-bottom="0"
     inkscape:window-width="1920"
     inkscape:window-height="993"
     inkscape:window-x="0"
     inkscape:window-y="24"
     inkscape:window-maximized="1" />
  <g
     inkscape:groupmode="layer"
     id="layer2"
     inkscape:label="Livello 2"
     transform="translate(-15.360625,-11.887382)">
    <g
       id="g873"
       transform="translate(2.2080156,-1.8572613)">
      <g
         id="g854"
         transform="matrix(1.4040437,0,0,1.4040437,-18.077963,0.97900115)">
        <g
           id="g877"
           transform="translate(3.3565414,-0.00448316)">
          <path
             sodipodi:nodetypes="czzzzccszzccssscccccccccc"
             inkscape:connector-curvature="0"
             id="path623"
             d="m 32.11221,18.774934 c -0.538735,2.38178 -3.509455,7.51162 -3.68226,8.46612 -0.172804,0.95449 0.571599,1.894237 0.321232,2.903027 -0.250373,1.00879 -0.266049,0.857404 -1.685541,2.315492 -1.419492,1.458088 -2.050136,4.214453 -2.696734,7.58986 -0.646598,3.375407 1.403687,2.260956 3.796785,1.687255 0,2.35582 -0.923015,2.750763 -0.0098,3.44202 0,0 -0.646342,0.682949 -0.646342,0.97522 0,0.896095 1.011374,0.98401 1.011374,2.290206 0,1.306196 -2.499852,2.911651 -0.660636,5.085415 1.839216,2.173763 6.883211,0.591235 9.368661,0.591235 2.725412,2.30519 1.585524,4.560771 -0.626507,10.92394 0,0 29.890901,3.644587 28.846522,-2.609516 -2.625048,-15.7197 2.897499,2.715199 6.249939,-1.060287 1.278495,-1.439828 0.684181,-13.661769 0.775469,-20.312386 C 72.793984,17.777862 63.597244,11.646819 43.551827,12.167122 41.315926,10.308132 40.380711,9.4664682 40.380711,9.4664682 40.001575,11.701351 40.92605,13.655486 40.92605,13.655486 36.796515,10.048145 35.741447,11.030678 34.447989,9.0708941 c 0,0 -0.234689,1.4790549 0.146782,3.6312479 -6.349717,-3.8061717 -6.967158,-1.914028 -12.376163,-2.9723108 -0.0957,1.7700398 4.776448,5.7136978 4.776448,5.7136978 -1.803001,0.862305 -2.458486,3.189986 -4.496662,4.013095 2.821278,2.46684 8.908294,-1.112843 8.908294,-1.112843 z"
             style="opacity:1;fill:#c83737;fill-opacity:1;stroke:none;stroke-width:0.51152724px;stroke-linecap:butt;stroke-linejoin:miter;stroke-opacity:1" />
        </g>
      </g>
    </g>
  </g>
  <metadata
     id="metadata617">
    <rdf:RDF>
      <cc:Work>
        <dc:format>image/svg+xml</dc:format>
        <dc:type
           rdf:resource="http://purl.org/dc/dcmitype/StillImage" />
        <cc:license
           rdf:resource="http://creativecommons.org/publicdomain/zero/1.0/" />
        <dc:publisher>
          <cc:Agent
             rdf:about="http://openclipart.org/">
            <dc:title />
          </cc:Agent>
        </dc:publisher>
        <dc:title>dante</dc:title>
        <dc:date />
        <dc:description />
        <dc:source />
        <dc:creator>
          <cc:Agent>
            <dc:title />
          </cc:Agent>
        </dc:creator>
        <dc:subject>
          <rdf:Bag />
        </dc:subject>
      </cc:Work>
      <cc:License
         rdf:about="http://creativecommons.org/publicdomain/zero/1.0/">
        <cc:permits
           rdf:resource="http://creativecommons.org/ns#Reproduction" />
        <cc:permits
           rdf:resource="http://creativecommons.org/ns#Distribution" />
        <cc:permits
           rdf:resource="http://creativecommons.org/ns#DerivativeWorks" />
      </cc:License>
    </rdf:RDF>
  </metadata>
</svg>
