<?xml version="1.0" encoding="UTF-8" standalone="no"?>
<!-- Created with Inkscape (http://www.inkscape.org/) -->

<svg
   xmlns:dc="http://purl.org/dc/elements/1.1/"
   xmlns:cc="http://creativecommons.org/ns#"
   xmlns:rdf="http://www.w3.org/1999/02/22-rdf-syntax-ns#"
   xmlns:svg="http://www.w3.org/2000/svg"
   xmlns="http://www.w3.org/2000/svg"
   xmlns:xlink="http://www.w3.org/1999/xlink"
   xmlns:sodipodi="http://sodipodi.sourceforge.net/DTD/sodipodi-0.dtd"
   xmlns:inkscape="http://www.inkscape.org/namespaces/inkscape"
   width="80"
   height="80"
   id="svg4396"
   version="1.1"
   inkscape:version="0.92.2 (unknown)"
   sodipodi:docname="logo.svg"
   inkscape:export-filename="/home/emanuele/Projects/alighieri/electron/icons/icon.png"
   inkscape:export-xdpi="153.60001"
   inkscape:export-ydpi="153.60001">
  <title
     id="title833">dante</title>
  <defs
     id="defs4398">
    <linearGradient
       inkscape:collect="always"
       id="linearGradient2618">
      <stop
         style="stop-color:#c83737;stop-opacity:1;"
         offset="0"
         id="stop2614" />
      <stop
         style="stop-color:#a72828;stop-opacity:1"
         offset="1"
         id="stop2616" />
    </linearGradient>
    <linearGradient
       inkscape:collect="always"
       xlink:href="#linearGradient2618"
       id="linearGradient2622"
       x1="31.935946"
       y1="19.522411"
       x2="63.012432"
       y2="50.598896"
       gradientUnits="userSpaceOnUse"
       gradientTransform="matrix(1.3506038,0,0,1.3506038,-10.625953,-20.071357)" />
  </defs>
  <sodipodi:namedview
     id="base"
     pagecolor="#ffffff"
     bordercolor="#666666"
     borderopacity="1.0"
     inkscape:pageopacity="0.0"
     inkscape:pageshadow="2"
     inkscape:zoom="6.3782534"
     inkscape:cx="19.573319"
     inkscape:cy="38.416692"
     inkscape:document-units="px"
     inkscape:current-layer="g2634"
     showgrid="false"
     fit-margin-top="0"
     fit-margin-left="0"
     fit-margin-right="0"
     fit-margin-bottom="0"
     inkscape:window-width="1920"
     inkscape:window-height="993"
     inkscape:window-x="0"
     inkscape:window-y="24"
     inkscape:window-maximized="1" />
  <g
     inkscape:groupmode="layer"
     id="layer2"
     inkscape:label="Livello 2"
     transform="translate(-15.360625,-11.887382)">
    <g
       id="g873"
       transform="translate(2.2080156,-1.8572613)">
      <g
         id="g854"
         transform="matrix(1.4040437,0,0,1.4040437,-18.077963,0.97900115)">
        <g
           id="g877"
           transform="translate(3.3565414,-0.00448316)">
          <g
             id="g2634"
             transform="translate(-6.1293964,6.7485429)">
            <path
               style="opacity:1;fill:#ffffff;fill-opacity:1;stroke:none;stroke-width:0.43452018px;stroke-linecap:butt;stroke-linejoin:miter;stroke-opacity:1"
               d="m 40.297305,14.623137 c -0.457632,2.023219 -2.98113,6.380796 -3.127919,7.191603 -0.146788,0.810797 0.485547,1.60907 0.27287,2.465993 -0.212679,0.856924 -0.225996,0.728328 -1.431792,1.966912 -1.205797,1.238581 -1.741502,3.579993 -2.29076,6.447254 -0.549256,2.867263 1.192373,1.920585 3.225205,1.433252 0,2.001166 -0.784061,2.336652 -0.0083,2.923846 0,0 -0.54904,0.580136 -0.54904,0.828406 0,0.761194 0.859119,0.835874 0.859119,1.945432 0,1.109556 -2.123515,2.47332 -0.561182,4.319838 1.562334,1.846518 5.846988,0.502228 7.958269,0.502228 2.315121,1.958159 1.346836,3.874178 -0.532187,9.279413 0,0 26.830806,3.173337 25.783577,-2.110027 -1.576217,-7.952146 1.181589,2.1998 4.02934,-1.007311 C 75.010488,49.586905 72.906007,39.951395 74.156618,31.955847 77.213529,12.41229 67.042483,8.5681128 50.014772,9.0100876 48.115472,7.4309565 47.321046,6.716 47.321046,6.716 c -0.322058,1.8984363 0.463243,3.558389 0.463243,3.558389 -3.50786,-3.0642805 -4.404096,-2.2296606 -5.502832,-3.8944123 0,0 -0.199358,1.2563943 0.124682,3.0845864 C 37.01233,6.2313878 36.48784,7.8386798 31.893125,6.9397156 c -0.08129,1.5035708 4.057385,4.8535374 4.057385,4.8535374 -1.53157,0.732491 -2.088376,2.709754 -3.819719,3.408951 2.396554,2.095474 7.56721,-0.945312 7.56721,-0.945312 z"
               id="path2636"
               inkscape:connector-curvature="0"
               sodipodi:nodetypes="czzzzccszzccssscccccccccc" />
            <path
               sodipodi:nodetypes="czzzzccszzccssscccccccccc"
               inkscape:connector-curvature="0"
               id="path2630"
               d="m 40.475362,14.801194 c -0.457632,2.023219 -2.98113,6.380796 -3.127919,7.191603 -0.146788,0.810797 0.485547,1.60907 0.27287,2.465993 -0.212679,0.856924 -0.225996,0.728328 -1.431792,1.966912 -1.205797,1.238581 -1.741502,3.579993 -2.29076,6.447254 -0.549256,2.867263 1.192373,1.920585 3.225205,1.433252 0,2.001166 -0.784061,2.336652 -0.0083,2.923846 0,0 -0.54904,0.580136 -0.54904,0.828406 0,0.761194 0.859119,0.835874 0.859119,1.945432 0,1.109556 -2.123515,2.47332 -0.561182,4.319838 1.562334,1.846518 5.846988,0.502228 7.958269,0.502228 2.315121,1.958159 1.346836,3.874178 -0.532187,9.279413 0,0 26.830806,3.173337 25.783577,-2.110027 -1.576217,-7.952146 1.181589,2.1998 4.02934,-1.007311 C 75.188545,49.764962 73.084064,40.129452 74.334675,32.133904 77.391586,12.590347 67.22054,8.74617 50.192829,9.1881448 48.293529,7.6090137 47.499103,6.8940572 47.499103,6.8940572 47.177045,8.7924935 47.962346,10.452446 47.962346,10.452446 44.454486,7.3881657 43.55825,8.2227856 42.459514,6.5580339 c 0,0 -0.199358,1.2563943 0.124682,3.0845864 C 37.190387,6.409445 36.665897,8.016737 32.071182,7.1177728 c -0.08129,1.5035708 4.057385,4.8535372 4.057385,4.8535372 -1.53157,0.732491 -2.088376,2.709754 -3.819719,3.408951 2.396554,2.095474 7.56721,-0.945312 7.56721,-0.945312 z"
               style="opacity:1;fill:#000000;fill-opacity:1;stroke:none;stroke-width:0.43452018px;stroke-linecap:butt;stroke-linejoin:miter;stroke-opacity:1" />
            <path
               style="opacity:1;fill:url(#linearGradient2622);fill-opacity:1;stroke:none;stroke-width:0.43452018px;stroke-linecap:butt;stroke-linejoin:miter;stroke-opacity:1"
               d="m 40.363141,14.688975 c -0.457632,2.023219 -2.981128,6.380795 -3.127918,7.191602 -0.146787,0.810797 0.485546,1.609071 0.272871,2.465994 -0.212681,0.856923 -0.225996,0.728328 -1.431793,1.966912 -1.205796,1.238579 -1.741502,3.579991 -2.29076,6.447253 -0.549256,2.867263 1.192373,1.920585 3.225205,1.433252 0,2.001166 -0.784061,2.336651 -0.0083,2.923845 0,0 -0.549039,0.580137 -0.549039,0.828408 0,0.761193 0.859117,0.835873 0.859117,1.94543 0,1.109557 -2.123515,2.473321 -0.561182,4.319839 1.562335,1.846517 5.846989,0.502229 7.958271,0.502229 2.31512,1.958159 1.346834,3.874176 -0.532189,9.279412 0,0 26.830806,3.173337 25.783577,-2.110028 -1.576215,-7.952145 1.181589,2.199801 4.029342,-1.00731 C 75.076324,49.652741 72.971842,40.017232 74.222454,32.021685 77.279365,12.478128 67.10832,8.6339501 50.080608,9.0759249 48.181309,7.4967939 47.386883,6.7818374 47.386883,6.7818374 47.064825,8.6802736 47.850126,10.340226 47.850126,10.340226 44.342265,7.2759458 43.446031,8.1105657 42.347294,6.445814 c 0,0 -0.199357,1.2563943 0.124682,3.0845864 C 37.078167,6.2972251 36.553677,7.9045171 31.958963,7.005553 c -0.08129,1.5035707 4.057384,4.853537 4.057384,4.853537 -1.53157,0.732492 -2.088376,2.709755 -3.819718,3.40895 2.396553,2.095475 7.567209,-0.94531 7.567209,-0.94531 z"
               id="path623"
               inkscape:connector-curvature="0"
               sodipodi:nodetypes="czzzzccszzccssscccccccccc" />
          </g>
        </g>
      </g>
    </g>
  </g>
  <metadata
     id="metadata617">
    <rdf:RDF>
      <cc:Work>
        <dc:format>image/svg+xml</dc:format>
        <dc:type
           rdf:resource="http://purl.org/dc/dcmitype/StillImage" />
        <cc:license
           rdf:resource="http://creativecommons.org/publicdomain/zero/1.0/" />
        <dc:publisher>
          <cc:Agent
             rdf:about="http://openclipart.org/">
            <dc:title />
          </cc:Agent>
        </dc:publisher>
        <dc:title>dante</dc:title>
        <dc:date />
        <dc:description />
        <dc:source />
        <dc:creator>
          <cc:Agent>
            <dc:title />
          </cc:Agent>
        </dc:creator>
        <dc:subject>
          <rdf:Bag />
        </dc:subject>
      </cc:Work>
      <cc:License
         rdf:about="http://creativecommons.org/publicdomain/zero/1.0/">
        <cc:permits
           rdf:resource="http://creativecommons.org/ns#Reproduction" />
        <cc:permits
           rdf:resource="http://creativecommons.org/ns#Distribution" />
        <cc:permits
           rdf:resource="http://creativecommons.org/ns#DerivativeWorks" />
      </cc:License>
    </rdf:RDF>
  </metadata>
</svg>
