<?xml version="1.0" standalone="no"?><!-- Generator: Gravit.io --><svg xmlns="http://www.w3.org/2000/svg" xmlns:xlink="http://www.w3.org/1999/xlink" style="isolation:isolate" viewBox="0 0 512 512" width="512" height="512"><defs><clipPath id="_clipPath_gH5Lj3GGeO018mjmpSZg9NmmRuz1GsLd"><rect width="512" height="512"/></clipPath></defs><g clip-path="url(#_clipPath_gH5Lj3GGeO018mjmpSZg9NmmRuz1GsLd)"><g><path d=" M 461.181 393.098 L 256 492.922 L 50.819 393.098 L 50.819 256 L 50.819 112.69 L 256 19.078 L 461.181 112.69 L 461.181 256 L 461.181 393.098 Z " fill="rgb(172,44,50)"/><path d=" M 256 492.922 L 50.819 393.098 L 50.819 256 L 50.819 112.69 L 256 19.078 L 256 492.922 Z " fill="rgb(153,32,38)"/></g><path d=" M 345.739 159.52 L 356.416 201.14 L 348.858 213.712 L 363.791 222.638 L 380.779 272.117 L 357.484 280.068 L 371.372 320.521 L 361.806 336.423 L 322.974 336.423 L 322.974 397.77 Q 308.763 402.609 275.133 405.192 L 157.19 336.887 L 131.221 263.842 L 169.206 150.711 Q 220.255 116.437 225.909 117.13 L 294.678 121.029 L 324.819 108.757 L 322.568 119.61 L 369.503 106.808 L 352.161 128.14 L 331.104 140.573 L 345.739 159.52 Z " fill="rgb(255,255,255)"/></g></svg>