<?xml version="1.0" encoding="utf-8"?>
<!-- Generator: Adobe Illustrator 25.2.3, SVG Export Plug-In . SVG Version: 6.00 Build 0)  -->
<svg version="1.1" id="Layer_1" xmlns="http://www.w3.org/2000/svg" xmlns:xlink="http://www.w3.org/1999/xlink" x="0px" y="0px"
	 viewBox="0 0 280 280" enable-background="new 0 0 280 280" xml:space="preserve">
<g>
	<path id="path8860-5-4-8-2-7-1-8_20_" fill="#050A14" d="M160.331,139.996c0,11.225-9.099,20.324-20.324,20.324h0
		c-11.225,0-20.324-9.1-20.324-20.324v0c0-11.225,9.1-20.324,20.324-20.324C151.231,119.672,160.331,128.771,160.331,139.996z"/>
	<g>
		<path id="path8862-5-5-9-1-9-2-7_20_" fill="#050A14" d="M230.226,87.9c-4.419-7.603-9.784-14.617-15.965-20.872l-23.496,13.566
			c-7.324-6.256-15.647-11.048-24.532-14.218c-8.022,8.13-14.394,17.213-18.987,27.092c26.155-1.78,53.167,7.686,78.244,27.278
			l14.787-8.538C237.967,103.714,234.59,95.546,230.226,87.9L230.226,87.9z"/>
		<path id="path8866-7-5-5-0-3-5-6_20_" fill="#050A14" d="M140.012,244.177c8.794-0.026,17.55-1.165,26.059-3.39v-27.131
			c9.08-3.214,17.391-8.027,24.579-14.136c-3.03-11.012-7.71-21.072-13.969-29.99c-11.536,23.541-33.24,42.201-62.746,54.122v17.075
			C122.447,242.974,131.209,244.133,140.012,244.177z"/>
		<path id="path8870-5-3-9-3-0-0-9_20_" fill="#050A14" d="M49.78,87.911c-4.375,7.629-7.766,15.781-10.093,24.263l23.496,13.566
			c-1.756,9.47-1.744,19.074-0.047,28.354c11.051,2.882,22.104,3.859,32.956,2.897C81.473,135.23,76.165,107.104,80.594,75.59
			l-14.787-8.538C59.604,73.3,54.219,80.309,49.78,87.911z"/>
	</g>
	<g>
		<path id="path8864-4-8-1-2-7-3-1_20_" fill="#00B4FF" d="M230.232,192.081c4.375-7.629,7.766-15.781,10.093-24.263l-23.496-13.566
			c1.756-9.47,1.744-19.074,0.047-28.354c-11.051-2.882-22.104-3.859-32.956-2.897c14.619,21.761,19.927,49.887,15.498,81.401
			l14.787,8.538C220.408,206.692,225.793,199.683,230.232,192.081L230.232,192.081z"/>
		<path id="path8868-6-7-4-7-5-7-1_20_" fill="#00B4FF" d="M49.786,192.092c4.42,7.603,9.784,14.617,15.965,20.872l23.496-13.566
			c7.324,6.256,15.647,11.048,24.532,14.218c8.022-8.13,14.394-17.213,18.987-27.092c-26.155,1.78-53.167-7.686-78.244-27.278
			l-14.787,8.538C42.045,176.278,45.422,184.446,49.786,192.092L49.786,192.092z"/>
		<path id="path8872-6-3-2-1-4-2-1_20_" fill="#00B4FF" d="M140,35.815c-8.795,0.026-17.55,1.165-26.059,3.39v27.131
			c-9.08,3.214-17.391,8.027-24.579,14.136c3.03,11.012,7.71,21.072,13.969,29.99c11.536-23.541,33.24-42.201,62.746-54.122V39.266
			C157.566,37.018,148.803,35.859,140,35.815L140,35.815z"/>
	</g>
	<path fill="#00B4FF" d="M140,17.909c67.321,0,122.091,54.77,122.091,122.091S207.321,262.091,140,262.091
		S17.909,207.321,17.909,140S72.679,17.909,140,17.909 M140,0C62.68,0,0,62.68,0,140s62.68,140,140,140s140-62.68,140-140
		S217.32,0,140,0L140,0z"/>
</g>
</svg>
